<svg xmlns="http://www.w3.org/2000/svg" width="500" height="400" viewBox="0 0 500 400">
  <!-- Background Elements -->
  <rect x="0" y="0" width="500" height="400" fill="#f9f9f9" rx="20" ry="20" />
  
  <!-- Decorative Shapes -->
  <circle cx="50" cy="50" r="20" fill="#6c63ff" opacity="0.1" />
  <circle cx="450" cy="70" r="25" fill="#f50057" opacity="0.1" />
  <circle cx="80" cy="350" r="30" fill="#6c63ff" opacity="0.1" />
  <circle cx="420" cy="330" r="15" fill="#f50057" opacity="0.1" />
  
  <!-- Developer at Desk -->
  <!-- Desk -->
  <rect x="100" y="250" width="300" height="15" rx="3" fill="#555" />
  <rect x="120" y="265" width="10" height="80" fill="#444" />
  <rect x="370" y="265" width="10" height="80" fill="#444" />
  
  <!-- Computer -->
  <rect x="180" y="170" width="140" height="80" rx="5" fill="#333" />
  <rect x="170" y="165" width="160" height="5" rx="2" fill="#444" />
  <rect x="190" y="180" width="120" height="60" fill="#6c63ff" opacity="0.2" />
  
  <!-- Code on Screen -->
  <rect x="200" y="190" width="40" height="4" fill="#f50057" />
  <rect x="200" y="200" width="60" height="4" fill="#6c63ff" />
  <rect x="200" y="210" width="50" height="4" fill="white" />
  <rect x="200" y="220" width="70" height="4" fill="#6c63ff" />
  <rect x="200" y="230" width="30" height="4" fill="#f50057" />
  
  <!-- Person (Abstract) -->
  <circle cx="250" cy="120" r="30" fill="#6c63ff" opacity="0.8" />
  <path d="M220 150 Q250 130 280 150 L280 200 Q250 220 220 200 Z" fill="#6c63ff" opacity="0.8" />
  
  <!-- Coffee Cup -->
  <rect x="320" y="220" width="25" height="30" rx="3" fill="#795548" />
  <path d="M345 225 Q355 230 345 235" stroke="#795548" stroke-width="3" fill="none" />
  <rect x="320" y="215" width="25" height="5" rx="2" fill="#8D6E63" />
  <ellipse cx="332.5" cy="220" rx="12.5" ry="3" fill="#5D4037" opacity="0.3" />
  
  <!-- Plant -->
  <rect x="130" y="220" width="20" height="30" rx="2" fill="#4CAF50" opacity="0.7" />
  <path d="M140 220 Q130 200 120 210 Q110 190 140 190 Q170 190 160 210 Q150 200 140 220" fill="#4CAF50" opacity="0.9" />
  
  <!-- Abstract Elements -->
  <path d="M50 150 Q100 100 150 150" stroke="#6c63ff" stroke-width="2" fill="none" opacity="0.5" />
  <path d="M350 100 Q400 150 450 100" stroke="#f50057" stroke-width="2" fill="none" opacity="0.5" />
  
  <!-- Skills Icons (Abstract) -->
  <circle cx="100" cy="120" r="15" fill="#f50057" opacity="0.6" />
  <rect x="85" y="115" width="30" height="10" rx="5" fill="white" opacity="0.8" />
  
  <circle cx="400" cy="120" r="15" fill="#6c63ff" opacity="0.6" />
  <rect x="390" y="110" width="20" height="20" rx="3" fill="white" opacity="0.8" />
  
  <circle cx="100" cy="200" r="15" fill="#6c63ff" opacity="0.6" />
  <polygon points="100,190 110,200 100,210 90,200" fill="white" opacity="0.8" />
  
  <circle cx="400" cy="200" r="15" fill="#f50057" opacity="0.6" />
  <circle cx="400" cy="200" r="7" fill="white" opacity="0.8" />
</svg>