<svg xmlns="http://www.w3.org/2000/svg" width="500" height="500" viewBox="0 0 500 500">
  <!-- Background Circle -->
  <circle cx="250" cy="250" r="240" fill="#f0f0f0" />
  
  <!-- Decorative Elements -->
  <circle cx="100" cy="100" r="20" fill="#6c63ff" opacity="0.3" />
  <circle cx="400" cy="150" r="15" fill="#f50057" opacity="0.3" />
  <circle cx="120" cy="400" r="25" fill="#6c63ff" opacity="0.3" />
  <circle cx="380" cy="380" r="18" fill="#f50057" opacity="0.3" />
  
  <!-- Abstract Person Shape -->
  <!-- Head -->
  <circle cx="250" cy="180" r="80" fill="#6c63ff" opacity="0.8" />
  
  <!-- Body -->
  <path d="M170 280 Q250 230 330 280 L330 380 Q250 420 170 380 Z" fill="#6c63ff" opacity="0.8" />
  
  <!-- Face Details (Minimalist) -->
  <circle cx="220" cy="170" r="10" fill="white" />
  <circle cx="280" cy="170" r="10" fill="white" />
  <path d="M230 210 Q250 230 270 210" fill="none" stroke="white" stroke-width="4" stroke-linecap="round" />
  
  <!-- Laptop -->
  <rect x="200" y="320" width="100" height="60" rx="5" fill="#333" />
  <rect x="195" y="315" width="110" height="5" rx="2" fill="#444" />
  
  <!-- Code on Screen -->
  <rect x="210" y="330" width="30" height="3" fill="#f50057" />
  <rect x="210" y="338" width="50" height="3" fill="#6c63ff" />
  <rect x="210" y="346" width="40" height="3" fill="white" />
  <rect x="210" y="354" width="60" height="3" fill="#6c63ff" />
  
  <!-- Decorative Lines -->
  <line x1="50" y1="250" x2="100" y2="250" stroke="#6c63ff" stroke-width="3" stroke-linecap="round" />
  <line x1="400" y1="250" x2="450" y2="250" stroke="#f50057" stroke-width="3" stroke-linecap="round" />
  <line x1="250" y1="50" x2="250" y2="100" stroke="#6c63ff" stroke-width="3" stroke-linecap="round" />
  <line x1="250" y1="400" x2="250" y2="450" stroke="#f50057" stroke-width="3" stroke-linecap="round" />
  
  <!-- Abstract Code Elements -->
  <rect x="80" y="180" width="40" height="5" rx="2" fill="#6c63ff" opacity="0.5" />
  <rect x="70" y="190" width="60" height="5" rx="2" fill="#6c63ff" opacity="0.5" />
  <rect x="75" y="200" width="50" height="5" rx="2" fill="#6c63ff" opacity="0.5" />
  
  <rect x="380" y="280" width="40" height="5" rx="2" fill="#f50057" opacity="0.5" />
  <rect x="370" y="290" width="60" height="5" rx="2" fill="#f50057" opacity="0.5" />
  <rect x="375" y="300" width="50" height="5" rx="2" fill="#f50057" opacity="0.5" />
</svg>