<svg xmlns="http://www.w3.org/2000/svg" width="400" height="300" viewBox="0 0 400 300">
  <!-- Background -->
  <rect x="0" y="0" width="400" height="300" fill="#f5f5f5" />
  
  <!-- Travel Agency UI Design Illustration -->
  <!-- Design Board -->
  <rect x="50" y="40" width="300" height="220" rx="5" fill="white" stroke="#ddd" stroke-width="2" />
  
  <!-- Design Tools Bar -->
  <rect x="50" y="40" width="30" height="220" rx="5" fill="#f0f0f0" stroke="#ddd" stroke-width="1" />
  
  <!-- Tool Icons -->
  <circle cx="65" cy="60" r="8" fill="#6c63ff" opacity="0.7" />
  <rect x="57" y="80" width="16" height="16" rx="3" fill="#f50057" opacity="0.7" />
  <polygon points="65,110 57,122 73,122" fill="#FFC107" opacity="0.7" />
  <circle cx="65" cy="140" r="8" fill="none" stroke="#333" stroke-width="2" />
  <path d="M57 160 L73 176 M73 160 L57 176" stroke="#333" stroke-width="2" />
  
  <!-- Design Canvas -->
  <rect x="90" y="50" width="250" height="200" fill="#f9f9f9" />
  
  <!-- Travel Website Mockup -->
  <!-- Header -->
  <rect x="100" y="60" width="230" height="40" fill="#6c63ff" />
  
  <!-- Logo -->
  <circle cx="120" cy="80" r="10" fill="white" />
  <path d="M115 80 L125 80 M120 75 L120 85" stroke="#6c63ff" stroke-width="2" />
  
  <!-- Navigation -->
  <rect x="140" y="75" width="30" height="10" rx="5" fill="white" opacity="0.8" />
  <rect x="180" y="75" width="30" height="10" rx="5" fill="white" opacity="0.8" />
  <rect x="220" y="75" width="30" height="10" rx="5" fill="white" opacity="0.8" />
  <rect x="260" y="75" width="30" height="10" rx="5" fill="white" opacity="0.8" />
  
  <!-- Hero Section -->
  <rect x="100" y="110" width="230" height="70" fill="#f0f0f0" />
  
  <!-- Destination Image Placeholder -->
  <rect x="110" y="120" width="100" height="50" rx="5" fill="#ddd" />
  <circle cx="130" cy="135" r="8" fill="#fff" opacity="0.5" />
  <path d="M125 135 L135 135 M130 130 L130 140" stroke="#fff" stroke-width="2" opacity="0.5" />
  
  <!-- Text Content -->
  <rect x="220" y="120" width="100" height="10" rx="2" fill="#333" />
  <rect x="220" y="135" width="80" height="5" rx="2" fill="#666" />
  <rect x="220" y="145" width="90" height="5" rx="2" fill="#666" />
  <rect x="220" y="155" width="70" height="5" rx="2" fill="#666" />
  <rect x="220" y="165" width="50" height="10" rx="5" fill="#f50057" />
  
  <!-- Destination Cards -->
  <rect x="100" y="190" width="70" height="50" rx="5" fill="white" stroke="#ddd" stroke-width="1" />
  <rect x="105" y="195" width="60" height="25" rx="3" fill="#ddd" />
  <rect x="105" y="225" width="40" height="5" rx="2" fill="#333" />
  <rect x="105" y="235" width="30" height="5" rx="2" fill="#f50057" opacity="0.7" />
  
  <rect x="180" y="190" width="70" height="50" rx="5" fill="white" stroke="#ddd" stroke-width="1" />
  <rect x="185" y="195" width="60" height="25" rx="3" fill="#ddd" />
  <rect x="185" y="225" width="40" height="5" rx="2" fill="#333" />
  <rect x="185" y="235" width="30" height="5" rx="2" fill="#f50057" opacity="0.7" />
  
  <rect x="260" y="190" width="70" height="50" rx="5" fill="white" stroke="#ddd" stroke-width="1" />
  <rect x="265" y="195" width="60" height="25" rx="3" fill="#ddd" />
  <rect x="265" y="225" width="40" height="5" rx="2" fill="#333" />
  <rect x="265" y="235" width="30" height="5" rx="2" fill="#f50057" opacity="0.7" />
  
  <!-- Design Elements -->
  <circle cx="20" cy="20" r="10" fill="#6c63ff" opacity="0.3" />
  <circle cx="380" cy="20" r="10" fill="#f50057" opacity="0.3" />
  <circle cx="20" cy="280" r="10" fill="#f50057" opacity="0.3" />
  <circle cx="380" cy="280" r="10" fill="#6c63ff" opacity="0.3" />
  
  <!-- Color Palette -->
  <circle cx="370" cy="60" r="10" fill="#6c63ff" />
  <circle cx="370" cy="85" r="10" fill="#f50057" />
  <circle cx="370" cy="110" r="10" fill="#FFC107" />
  <circle cx="370" cy="135" r="10" fill="#333" />
  <circle cx="370" cy="160" r="10" fill="#f0f0f0" stroke="#ddd" stroke-width="1" />
  
  <!-- Ruler Marks -->
  <line x1="90" y1="45" x2="90" y2="50" stroke="#999" stroke-width="1" />
  <line x1="115" y1="45" x2="115" y2="50" stroke="#999" stroke-width="1" />
  <line x1="140" y1="45" x2="140" y2="50" stroke="#999" stroke-width="1" />
  <line x1="165" y1="45" x2="165" y2="50" stroke="#999" stroke-width="1" />
  <line x1="190" y1="45" x2="190" y2="50" stroke="#999" stroke-width="1" />
  <line x1="215" y1="45" x2="215" y2="50" stroke="#999" stroke-width="1" />
  <line x1="240" y1="45" x2="240" y2="50" stroke="#999" stroke-width="1" />
  <line x1="265" y1="45" x2="265" y2="50" stroke="#999" stroke-width="1" />
  <line x1="290" y1="45" x2="290" y2="50" stroke="#999" stroke-width="1" />
  <line x1="315" y1="45" x2="315" y2="50" stroke="#999" stroke-width="1" />
  <line x1="340" y1="45" x2="340" y2="50" stroke="#999" stroke-width="1" />
</svg>