<svg xmlns="http://www.w3.org/2000/svg" width="400" height="300" viewBox="0 0 400 300">
  <!-- Background -->
  <rect x="0" y="0" width="400" height="300" fill="#f5f5f5" />
  
  <!-- Portfolio Website Illustration -->
  <!-- Laptop -->
  <path d="M80 220 L320 220 L340 250 L60 250 Z" fill="#333" />
  <rect x="100" y="70" width="200" height="150" fill="#444" />
  <rect x="105" y="75" width="190" height="140" fill="#f9f9f9" />
  <circle cx="200" cy="235" r="5" fill="#555" />
  
  <!-- Website Content -->
  <!-- Header -->
  <rect x="105" y="75" width="190" height="30" fill="#6c63ff" />
  
  <!-- Logo -->
  <rect x="115" y="85" width="50" height="10" rx="5" fill="white" opacity="0.9" />
  
  <!-- Navigation -->
  <rect x="185" y="85" width="15" height="10" rx="2" fill="white" opacity="0.7" />
  <rect x="210" y="85" width="15" height="10" rx="2" fill="white" opacity="0.7" />
  <rect x="235" y="85" width="15" height="10" rx="2" fill="white" opacity="0.7" />
  <rect x="260" y="85" width="15" height="10" rx="2" fill="white" opacity="0.7" />
  
  <!-- Hero Section -->
  <rect x="105" y="105" width="190" height="50" fill="#f0f0f0" />
  
  <!-- Hero Text -->
  <rect x="125" y="115" width="80" height="10" rx="2" fill="#333" />
  <rect x="125" y="130" width="60" height="5" rx="2" fill="#666" />
  <rect x="125" y="140" width="40" height="10" rx="5" fill="#f50057" />
  
  <!-- Hero Image -->
  <circle cx="245" cy="130" r="20" fill="#6c63ff" opacity="0.7" />
  
  <!-- Portfolio Grid -->
  <rect x="115" y="165" width="50" height="40" rx="3" fill="white" stroke="#ddd" stroke-width="1" />
  <rect x="175" y="165" width="50" height="40" rx="3" fill="white" stroke="#ddd" stroke-width="1" />
  <rect x="235" y="165" width="50" height="40" rx="3" fill="white" stroke="#ddd" stroke-width="1" />
  
  <!-- Decorative Elements -->
  <circle cx="30" cy="30" r="15" fill="#6c63ff" opacity="0.2" />
  <circle cx="370" cy="30" r="15" fill="#f50057" opacity="0.2" />
  <circle cx="30" cy="270" r="15" fill="#f50057" opacity="0.2" />
  <circle cx="370" cy="270" r="15" fill="#6c63ff" opacity="0.2" />
  
  <!-- Code Elements -->
  <rect x="30" y="100" width="30" height="5" rx="2" fill="#6c63ff" opacity="0.5" />
  <rect x="25" y="110" width="40" height="5" rx="2" fill="#6c63ff" opacity="0.5" />
  <rect x="35" y="120" width="20" height="5" rx="2" fill="#6c63ff" opacity="0.5" />
  
  <rect x="340" y="100" width="30" height="5" rx="2" fill="#f50057" opacity="0.5" />
  <rect x="335" y="110" width="40" height="5" rx="2" fill="#f50057" opacity="0.5" />
  <rect x="345" y="120" width="20" height="5" rx="2" fill="#f50057" opacity="0.5" />
  
  <!-- Design Elements -->
  <circle cx="40" cy="180" r="10" fill="#6c63ff" opacity="0.3" />
  <rect x="35" y="175" width="10" height="10" fill="white" opacity="0.7" />
  
  <circle cx="360" cy="180" r="10" fill="#f50057" opacity="0.3" />
  <polygon points="360,175 365,185 355,185" fill="white" opacity="0.7" />
</svg>