<svg xmlns="http://www.w3.org/2000/svg" width="400" height="300" viewBox="0 0 400 300">
  <!-- Background -->
  <rect x="0" y="0" width="400" height="300" fill="#f5f5f5" />
  
  <!-- Task Management App Illustration -->
  <!-- Phone Outline -->
  <rect x="125" y="30" width="150" height="240" rx="15" fill="white" stroke="#ddd" stroke-width="2" />
  
  <!-- Phone Screen -->
  <rect x="130" y="35" width="140" height="230" rx="10" fill="#f9f9f9" />
  
  <!-- Status Bar -->
  <rect x="130" y="35" width="140" height="25" rx="10" fill="#6c63ff" />
  
  <!-- App Header -->
  <rect x="140" y="70" width="120" height="30" rx="5" fill="white" />
  <rect x="150" y="80" width="70" height="10" rx="2" fill="#333" />
  <circle cx="240" cy="85" r="8" fill="#6c63ff" opacity="0.7" />
  
  <!-- Task Items -->
  <!-- Task 1 -->
  <rect x="140" y="110" width="120" height="40" rx="5" fill="white" stroke="#eee" stroke-width="1" />
  <rect x="150" y="120" width="80" height="8" rx="2" fill="#333" />
  <rect x="150" y="132" width="60" height="6" rx="2" fill="#999" />
  <circle cx="230" cy="130" r="8" fill="#4CAF50" opacity="0.7" />
  <path d="M226 130 L229 133 L234 127" stroke="white" stroke-width="2" fill="none" />
  
  <!-- Task 2 -->
  <rect x="140" y="160" width="120" height="40" rx="5" fill="white" stroke="#eee" stroke-width="1" />
  <rect x="150" y="170" width="70" height="8" rx="2" fill="#333" />
  <rect x="150" y="182" width="50" height="6" rx="2" fill="#999" />
  <circle cx="230" cy="180" r="8" fill="#f50057" opacity="0.7" />
  <path d="M225 175 L235 185 M235 175 L225 185" stroke="white" stroke-width="2" />
  
  <!-- Task 3 -->
  <rect x="140" y="210" width="120" height="40" rx="5" fill="white" stroke="#eee" stroke-width="1" />
  <rect x="150" y="220" width="90" height="8" rx="2" fill="#333" />
  <rect x="150" y="232" width="70" height="6" rx="2" fill="#999" />
  <circle cx="230" cy="230" r="8" fill="#FFC107" opacity="0.7" />
  
  <!-- Add Button -->
  <circle cx="200" cy="270" r="15" fill="#6c63ff" />
  <path d="M200 265 L200 275 M195 270 L205 270" stroke="white" stroke-width="2" />
  
  <!-- Decorative Elements -->
  <circle cx="50" cy="50" r="15" fill="#6c63ff" opacity="0.2" />
  <circle cx="350" cy="50" r="15" fill="#f50057" opacity="0.2" />
  <circle cx="50" cy="250" r="15" fill="#f50057" opacity="0.2" />
  <circle cx="350" cy="250" r="15" fill="#6c63ff" opacity="0.2" />
  
  <!-- Abstract Task Icons -->
  <rect x="40" y="100" width="30" height="5" rx="2" fill="#6c63ff" opacity="0.5" />
  <rect x="35" y="110" width="40" height="5" rx="2" fill="#6c63ff" opacity="0.5" />
  <rect x="45" y="120" width="20" height="5" rx="2" fill="#6c63ff" opacity="0.5" />
  
  <rect x="330" y="100" width="30" height="5" rx="2" fill="#f50057" opacity="0.5" />
  <rect x="325" y="110" width="40" height="5" rx="2" fill="#f50057" opacity="0.5" />
  <rect x="335" y="120" width="20" height="5" rx="2" fill="#f50057" opacity="0.5" />
  
  <!-- Calendar Icon -->
  <rect x="40" y="180" width="30" height="30" rx="5" fill="#6c63ff" opacity="0.3" />
  <rect x="45" y="185" width="20" height="5" rx="2" fill="white" opacity="0.8" />
  <rect x="45" y="195" width="5" height="5" rx="1" fill="white" opacity="0.8" />
  <rect x="55" y="195" width="5" height="5" rx="1" fill="white" opacity="0.8" />
  <rect x="45" y="205" width="5" height="5" rx="1" fill="white" opacity="0.8" />
  <rect x="55" y="205" width="5" height="5" rx="1" fill="white" opacity="0.8" />
  
  <!-- Clock Icon -->
  <circle cx="330" cy="195" r="15" fill="#f50057" opacity="0.3" />
  <circle cx="330" cy="195" r="12" fill="none" stroke="white" stroke-width="2" opacity="0.8" />
  <line x1="330" y1="195" x2="330" y2="185" stroke="white" stroke-width="2" opacity="0.8" />
  <line x1="330" y1="195" x2="338" y2="195" stroke="white" stroke-width="2" opacity="0.8" />
</svg>